<svg width="50" height="52" viewBox="0 0 50 52" fill="none" xmlns="http://www.w3.org/2000/svg">
<path fill-rule="evenodd" clip-rule="evenodd" d="M10.4588 13.4979C14.8963 13.4979 17.3888 11.067 17.3888 6.75109C17.3888 2.4309 14.8919 0 10.4588 0C6.0213 0 3.52439 2.4309 3.52439 6.75109C3.52439 11.0713 6.0213 13.4979 10.4588 13.4979ZM42.5244 16.8372C42.5416 17.2572 42.6437 17.6699 42.8247 18.0515C43.0058 18.4331 43.2623 18.7763 43.5796 19.0614C43.8968 19.3466 44.2687 19.5681 44.6739 19.7133C45.0791 19.8585 45.5097 19.9246 45.9412 19.9078C46.3726 19.891 46.7964 19.7916 47.1884 19.6154C47.5804 19.4391 47.9329 19.1894 48.2258 18.8805C48.5187 18.5716 48.7462 18.2096 48.8954 17.8151C49.0445 17.4206 49.1124 17.0014 49.0952 16.5813C49.0374 15.2003 48.9659 13.8199 48.8805 12.4403C48.7149 9.67452 47.5123 7.06418 45.5009 5.1044C43.4895 3.14462 40.8093 1.97174 37.9686 1.80825C35.7783 1.68031 33.6143 1.59501 31.4547 1.53104C30.5834 1.50672 29.7378 1.82039 29.104 2.40304C28.4702 2.98569 28.1001 3.7896 28.0751 4.63791C28.0502 5.48622 28.3723 6.30944 28.9708 6.92648C29.5693 7.54353 30.395 7.90384 31.2664 7.92815C33.3559 7.9836 35.4585 8.07316 37.5787 8.19683C38.8142 8.26591 39.9806 8.77457 40.8561 9.62613C41.7316 10.4777 42.2551 11.6128 42.3272 12.8155C42.4061 14.1675 42.4762 15.5023 42.5287 16.8372H42.5244ZM17.9714 51.9957C18.8314 52.0048 19.6608 51.6852 20.2815 51.1056C20.9022 50.5259 21.2646 49.7324 21.291 48.8955C21.3174 48.0585 21.0056 47.2449 20.4226 46.6293C19.8396 46.0136 19.0319 45.6451 18.1729 45.6029C16.2017 45.5432 14.2129 45.4579 12.211 45.3427C10.9748 45.2736 9.80783 44.7643 8.93224 43.9118C8.05665 43.0594 7.53355 41.9233 7.4625 40.7198C7.42622 40.1171 7.39264 39.5144 7.36175 38.9115C7.30934 38.0702 6.91797 37.2831 6.27273 36.7212C5.62748 36.1593 4.7805 35.868 3.9159 35.9107C3.0513 35.9534 2.23895 36.3266 1.65543 36.9492C1.07191 37.5718 0.764384 38.3935 0.799697 39.2356L0.90483 41.0993C1.07162 43.865 2.27527 46.4749 4.28746 48.4338C6.29964 50.3928 8.98038 51.5647 11.8211 51.7271C13.8888 51.8465 15.9388 51.9403 17.9714 51.9957ZM39.5456 40.5876C45.2534 40.5876 49.1696 44.4685 49.98 49.8762C50.1553 51.0404 49.1521 52 47.9431 52H31.1437C29.9347 52 28.9315 51.0404 29.1068 49.8762C29.9172 44.4642 33.8334 40.5876 39.5456 40.5876ZM20.8932 25.661C20.0872 20.2575 16.171 16.3809 10.4588 16.3809C4.74657 16.3809 0.830361 20.2618 0.0199607 25.6695C-0.155261 26.8338 0.847883 27.7933 2.05691 27.7933H18.8607C20.0697 27.7933 21.0685 26.8338 20.8932 25.6695V25.661ZM46.4756 30.9663C46.4756 35.2865 43.9787 37.7174 39.5412 37.7174C35.1037 37.7174 32.6112 35.2865 32.6112 30.9663C32.6112 26.6461 35.1081 24.2152 39.5412 24.2152C43.9787 24.2152 46.4756 26.6461 46.4756 30.9663Z" fill="#B251FB"/>
</svg>
