<svg width="49" height="48" viewBox="0 0 49 48" fill="none" xmlns="http://www.w3.org/2000/svg">
<path fill-rule="evenodd" clip-rule="evenodd" d="M13.896 4.46429C13.5874 3.49968 13.0877 2.63379 12.3698 1.91588C11.0341 0.580114 9.18582 0 7.14286 0C5.09989 0 3.25164 0.580114 1.91588 1.91588C0.580114 3.25164 0 5.09989 0 7.14286C0 9.18582 0.580114 11.0341 1.91588 12.3698C3.25164 13.7056 5.09989 14.2857 7.14286 14.2857C9.18582 14.2857 11.0341 13.7056 12.3698 12.3698C13.0877 11.6519 13.5874 10.786 13.896 9.82143H45.5357C47.015 9.82143 48.2143 8.62218 48.2143 7.14286C48.2143 5.66354 47.015 4.46429 45.5357 4.46429H13.896ZM30.8603 21.317H45.5357C47.015 21.317 48.2143 22.5162 48.2143 23.9955C48.2143 25.4749 47.015 26.6741 45.5357 26.6741H30.8603C30.5516 27.6387 30.052 28.5046 29.3341 29.2225C27.9984 30.5583 26.1501 31.1384 24.1071 31.1384C22.0642 31.1384 20.2159 30.5583 18.8802 29.2225C18.1623 28.5046 17.6626 27.6387 17.354 26.6741H2.67857C1.19924 26.6741 0 25.4749 0 23.9955C0 22.5162 1.19924 21.317 2.67857 21.317H17.354C17.6626 20.3524 18.1623 19.4865 18.8802 18.7686C20.2159 17.4328 22.0642 16.8527 24.1071 16.8527C26.1501 16.8527 27.9984 17.4328 29.3341 18.7686C30.052 19.4865 30.5516 20.3524 30.8603 21.317ZM48.2143 40.8484C48.2143 38.8052 47.6343 36.957 46.2986 35.6213C44.9625 34.2855 43.1143 33.7054 41.0714 33.7054C39.0286 33.7054 37.1804 34.2855 35.8443 35.6213C35.1264 36.3391 34.6269 37.2052 34.3183 38.1698H2.67857C1.19924 38.1698 0 39.3687 0 40.8484C0 42.3277 1.19924 43.527 2.67857 43.527H34.3183C34.6269 44.4912 35.1264 45.3573 35.8443 46.0752C37.1804 47.4109 39.0286 47.9912 41.0714 47.9912C43.1143 47.9912 44.9625 47.4109 46.2986 46.0752C47.6343 44.7395 48.2143 42.8912 48.2143 40.8484Z" fill="#B251FB"/>
</svg>
