<svg width="1158" height="448" viewBox="0 0 1158 448" fill="none" xmlns="http://www.w3.org/2000/svg">
<g clip-path="url(#clip0_28_370)">
<path d="M861.111 168.546C856.74 169.285 852.595 166.486 851.852 162.295C850.574 155.084 846.257 146.267 838.947 140.363C832.01 134.76 821.906 131.358 807.439 135.199C803.159 136.335 798.751 133.931 797.594 129.83C796.436 125.728 798.968 121.482 803.247 120.346C822.754 115.167 838.319 119.652 849.328 128.544C859.965 137.135 865.873 149.421 867.68 159.619C868.423 163.811 865.482 167.808 861.111 168.546Z" fill="#B251FB"/>
<path fill-rule="evenodd" clip-rule="evenodd" d="M930.496 86.2848C939.383 77.3448 955.47 76.2662 972.416 79.2393C990.344 82.3845 1008.23 89.8992 1016.43 96.9606C1031.2 110.64 1024.21 148.647 1012.21 163.461C1003.2 173.479 980.091 174.634 959.322 170.99C947.478 168.912 936.399 165.28 929.136 160.848C917.988 153.909 915.592 139.824 916.31 124.985C917.297 110.193 922.318 94.808 930.496 86.2848ZM989.504 125.981C989.271 120.333 964.396 104.224 958.778 106.249C953.151 108.288 953.273 138.326 958.217 142.336C963.16 146.345 989.802 132.872 989.504 125.981Z" fill="#B251FB"/>
<path d="M640.977 253.647L594.148 239.733C592.12 239.116 589.944 239.191 587.963 239.945C585.981 240.699 584.308 242.089 583.207 243.896L564.877 273.558C564.106 272.834 563.263 272.19 562.361 271.636C559.674 269.984 556.554 269.163 553.397 269.278C550.24 269.393 547.188 270.439 544.627 272.282C542.065 274.126 540.109 276.685 539.007 279.635C537.904 282.586 537.704 285.795 538.433 288.858C539.161 291.92 540.785 294.698 543.098 296.839C545.412 298.981 548.311 300.39 551.43 300.888C554.549 301.387 557.746 300.952 560.618 299.64C563.49 298.327 565.907 296.195 567.564 293.514L586.048 263.604C586.323 263.14 586.748 262.783 587.253 262.591C587.758 262.399 588.314 262.384 588.828 262.547L624.51 273.146C624.872 273.249 625.205 273.434 625.482 273.688C625.759 273.941 625.973 274.256 626.107 274.606C626.241 274.956 626.291 275.333 626.253 275.706C626.216 276.079 626.092 276.438 625.891 276.755L618.099 289.364C617.33 288.638 616.486 287.994 615.583 287.443C612.896 285.79 609.776 284.97 606.62 285.085C603.463 285.2 600.411 286.245 597.849 288.088C595.288 289.932 593.332 292.49 592.229 295.441C591.126 298.391 590.926 301.6 591.654 304.662C592.382 307.725 594.006 310.502 596.319 312.644C598.632 314.786 601.531 316.195 604.65 316.694C607.768 317.193 610.965 316.759 613.838 315.447C616.71 314.135 619.127 312.004 620.785 309.323L646.414 267.849C647.193 266.598 647.672 265.185 647.813 263.72C647.954 262.255 647.753 260.778 647.227 259.403C646.701 258.028 645.863 256.794 644.779 255.795C643.695 254.797 642.393 254.061 640.977 253.647Z" fill="#B251FB"/>
<rect width="24.7833" height="51.8215" rx="12.3917" transform="matrix(-0.995259 0.097262 0.0706788 0.997499 881.666 38)" fill="#110945"/>
<rect width="14.7077" height="51.6588" rx="7.35384" transform="matrix(-0.478744 -0.877955 -0.894519 0.447031 969.251 27.9127)" fill="#B251FB"/>
<rect width="13.7275" height="40.8813" rx="6.86377" transform="matrix(-0.276638 -0.960974 -0.954077 0.299563 726.802 301.153)" fill="#110945"/>
<path fill-rule="evenodd" clip-rule="evenodd" d="M772.895 309.431C799.462 308.149 799.476 334.678 805.69 334.75C868.871 335.472 869.366 354.603 865.191 378.119C860.878 402.415 849.917 418.425 841.783 427.666C838.675 431.196 834.37 433.352 829.767 433.487C809.958 434.069 776.305 427.414 753.021 401.992C747.058 395.481 744.532 386.508 744.84 377.516C745.761 350.633 750.652 310.504 772.895 309.431ZM806.538 393.301C808.399 358.517 783.787 356.23 767.373 359.428C759.921 360.88 755.18 367.875 754.935 375.681C754.7 383.131 756.873 390.576 761.959 395.989C781.816 417.127 810.426 422.745 827.252 422.324C831.162 422.226 834.812 420.452 837.442 417.536C838.027 416.886 838.63 416.196 839.245 415.465C845.687 407.804 845.842 395.178 836.62 391.869C826.729 388.321 814.913 391.958 808.677 394.834C807.657 395.304 806.477 394.447 806.538 393.301ZM842.868 354.92C836.919 352.334 830.022 355.229 827.463 361.386C824.903 367.543 827.651 374.63 833.599 377.215C839.548 379.801 846.445 376.906 849.004 370.749C851.564 364.593 848.816 357.505 842.868 354.92Z" fill="#B251FB"/>
<path d="M641.384 182.205L649.919 178.856C650.122 178.764 650.3 178.653 650.446 178.517C650.613 178.361 650.758 178.166 650.876 177.926L654.892 169.798C655.356 168.864 656.052 168.116 656.898 167.613C657.743 167.11 658.731 166.848 659.808 166.888C660.857 166.94 661.787 167.272 662.563 167.822C663.363 168.391 663.989 169.19 664.361 170.155L667.6 178.56C667.698 178.809 667.819 179.019 667.969 179.177C668.124 179.343 668.317 179.486 668.554 179.601L676.651 183.539C677.581 183.994 678.324 184.682 678.82 185.523C679.315 186.363 679.568 187.351 679.517 188.392C679.468 189.427 679.127 190.386 678.555 191.185C677.978 191.99 677.173 192.623 676.203 193.004L667.686 196.348C667.473 196.441 667.291 196.554 667.138 196.691C666.968 196.847 666.826 197.042 666.71 197.273L662.692 205.41C662.228 206.343 661.532 207.092 660.687 207.592C659.842 208.095 658.851 208.356 657.809 208.315C656.774 208.276 655.818 207.944 655.026 207.38C654.231 206.816 653.609 206.015 653.234 205.049L649.954 196.549C649.864 196.347 649.754 196.17 649.623 196.026C649.468 195.86 649.275 195.717 649.035 195.602L640.938 191.664C640.008 191.208 639.264 190.52 638.769 189.68C638.274 188.839 638.021 187.852 638.072 186.81C638.121 185.775 638.462 184.817 639.034 184.017C639.611 183.213 640.416 182.579 641.385 182.199L641.384 182.205Z" fill="#B251FB"/>
<path d="M474.641 299.096C474.641 299.096 474.642 299.095 474.642 299.095L472.071 294.346C472.003 294.234 471.925 294.138 471.834 294.063C471.73 293.976 471.605 293.906 471.455 293.855L466.371 292.114C465.786 291.912 465.295 291.561 464.939 291.103C464.583 290.646 464.36 290.086 464.309 289.452C464.268 288.833 464.4 288.263 464.671 287.767C464.952 287.255 465.381 286.827 465.927 286.537L470.673 284.004C470.814 283.928 470.929 283.841 471.012 283.741C471.1 283.638 471.171 283.514 471.223 283.367L472.991 278.323C473.196 277.744 473.552 277.256 474.015 276.902C474.478 276.549 475.044 276.326 475.663 276.277C476.279 276.228 476.869 276.355 477.382 276.631C477.897 276.908 478.328 277.332 478.62 277.872L481.187 282.612C481.256 282.73 481.336 282.828 481.428 282.907C481.532 282.996 481.657 283.064 481.802 283.114L486.891 284.856C487.476 285.058 487.967 285.409 488.321 285.866C488.677 286.324 488.9 286.885 488.947 287.499C488.996 288.109 488.866 288.694 488.587 289.201C488.308 289.709 487.878 290.135 487.332 290.427L482.532 292.991C482.419 293.059 482.322 293.137 482.246 293.224C482.159 293.328 482.088 293.452 482.036 293.601L480.267 298.644C480.062 299.224 479.706 299.711 479.244 300.065C478.781 300.419 478.214 300.642 477.595 300.69C476.98 300.74 476.389 300.612 475.877 300.337C475.362 300.06 474.932 299.637 474.64 299.098C474.639 299.097 474.64 299.096 474.641 299.096Z" fill="#110945"/>
<path fill-rule="evenodd" clip-rule="evenodd" d="M905.227 294.887C899.117 296.046 894.869 301.664 895.731 307.855C897.635 321.533 900.401 335.093 904.099 348.443C905.367 353.021 911.45 354.121 914.232 350.274L924.821 335.631C925.156 335.167 925.802 335.044 926.293 335.352L941.771 345.051C945.838 347.599 951.049 344.358 950.452 339.652C948.712 325.931 946.028 312.355 942.499 298.985C940.902 292.934 934.792 289.28 928.683 290.439L905.227 294.887Z" fill="#110945"/>
<path d="M958.834 234.702C957.434 232.829 954.564 232.931 953.305 234.899C948.053 243.114 945.303 249.251 944.062 252.401C943.358 254.187 944.418 256.108 946.333 256.493C947.571 256.742 949.209 257.019 951.087 257.208L950.594 262.221C950.405 264.14 951.525 266.147 953.725 266.436C954.668 266.561 955.842 266.637 957.244 266.587C958.645 266.537 959.81 266.377 960.742 266.186C962.914 265.741 963.883 263.659 963.554 261.759L962.692 256.794C964.552 256.472 966.164 256.079 967.381 255.743C969.262 255.223 970.178 253.231 969.344 251.5C967.874 248.446 964.679 242.521 958.834 234.702Z" fill="#B251FB"/>
<path fill-rule="evenodd" clip-rule="evenodd" d="M535.245 163.177L524.922 142.628C523.781 140.358 521.761 138.627 519.307 137.816C516.853 137.006 514.166 137.182 511.837 138.307C509.508 139.431 507.727 141.412 506.887 143.812C506.046 146.213 506.215 148.837 507.356 151.108L528.009 192.204L521.163 193.155C518.603 193.511 516.257 194.755 514.554 196.66C512.85 198.565 511.904 201.003 511.889 203.527C511.874 206.051 512.79 208.492 514.471 210.402C516.151 212.312 518.482 213.564 521.037 213.928L541.31 216.81C544.453 217.255 547.664 216.754 550.516 215.373L578.585 201.822C582.49 199.936 585.546 196.518 585.503 192.258C585.451 185.687 583.53 177.878 581.295 173.425C575.271 161.443 562.044 151.253 535.245 163.177Z" fill="#B251FB"/>
<path fill-rule="evenodd" clip-rule="evenodd" d="M793.143 161.92C813.364 170.348 832.21 183.847 839.772 194.245C853.076 214.085 833.33 256.431 814.682 270.47C801.022 279.726 773.379 274.921 749.952 265.157C736.593 259.589 724.606 252.416 717.369 245.329C706.3 234.292 707.727 217.271 713.06 200.202C718.695 183.259 729.274 166.7 741.508 158.962C754.704 150.928 774.028 153.953 793.143 161.92ZM765.32 175.485C758.413 171.186 749.119 173.43 744.561 180.498C740.004 187.565 741.909 196.78 748.816 201.079C755.724 205.378 765.018 203.134 769.576 196.067C774.133 189 772.227 179.785 765.32 175.485Z" fill="#B251FB"/>
<path d="M875.777 226.578C879.922 226.459 883.13 229.946 882.68 234.079L882.444 236.249C880.907 250.341 872.818 266.339 862.989 276.846C860.449 279.561 856.227 279.669 853.745 277.082L837.992 259.078C837.026 257.973 837.019 256.309 837.929 255.089C843.613 247.467 846.727 240.337 848.188 230.856C848.424 229.321 849.701 228.104 851.247 228.014L875.777 226.578Z" fill="#B251FB"/>
<path d="M716.928 48.6586C720.584 46.1517 725.476 46.9907 727.853 50.5326C731.943 56.6265 739.437 62.9252 748.456 65.295C757.015 67.5439 767.547 66.4451 779.082 56.865C782.494 54.0309 787.462 54.3971 790.178 57.6832C792.895 60.9692 792.33 65.9307 788.917 68.765C773.364 81.6826 757.448 84.0686 743.865 80.4996C730.741 77.0514 720.395 68.2296 714.611 59.6115C712.234 56.0694 713.271 51.1656 716.928 48.6586Z" fill="#110945"/>
<path fill-rule="evenodd" clip-rule="evenodd" d="M412.377 323.66C426.977 337.107 438.712 354.506 441.766 365.78C446.626 386.95 415.576 417.412 394.87 423.811C380.042 427.612 357.853 415.018 340.938 399.438C331.292 390.554 323.359 380.707 319.485 372.385C313.626 359.487 320.504 345.252 330.76 332.17C341.234 319.29 355.835 308.251 368.93 305.322C382.952 302.432 398.575 310.948 412.377 323.66ZM383.933 326.845C379.417 321.027 370.675 320.12 364.407 324.818C358.14 329.516 356.719 338.042 361.235 343.859C365.751 349.677 374.494 350.585 380.761 345.887C387.029 341.189 388.449 332.663 383.933 326.845Z" fill="#B251FB"/>
<path d="M462.011 404.659C465.617 405.824 467.22 409.81 465.46 413.235L464.536 415.034C458.535 426.71 446.264 438.026 434.318 444.077C431.231 445.641 427.562 444.443 426.286 441.454L418.709 421.119C418.244 419.871 418.791 418.434 419.979 417.661C427.401 412.829 432.447 407.636 436.852 399.91C437.565 398.66 439.068 398.001 440.428 398.396L462.011 404.659Z" fill="#B251FB"/>
<path d="M236.415 195.421C235.479 192.015 231.951 189.876 228.535 190.643C222.657 191.962 214.53 191.574 207.578 188.104C200.981 184.81 194.962 178.531 192.919 166.825C192.314 163.362 188.994 160.91 185.504 161.347C182.014 161.784 179.675 164.946 180.279 168.409C183.035 184.193 191.737 194.101 202.207 199.327C212.322 204.376 223.611 204.84 231.923 202.974C235.339 202.208 237.351 198.826 236.415 195.421Z" fill="#110945"/>
<path d="M429.29 223.691L381.837 188.332C379.788 186.785 377.28 185.965 374.708 186.001C372.137 186.036 369.649 186.926 367.638 188.528L334.325 214.739C333.751 213.593 333.062 212.507 332.268 211.5C329.903 208.497 326.698 206.262 323.057 205.08C319.416 203.898 315.503 203.82 311.814 204.857C308.125 205.895 304.825 208 302.332 210.907C299.838 213.814 298.264 217.392 297.807 221.189C297.35 224.985 298.032 228.83 299.766 232.235C301.5 235.641 304.209 238.455 307.548 240.321C310.888 242.188 314.71 243.023 318.529 242.72C322.349 242.418 325.995 240.992 329.006 238.623L362.597 212.193C363.105 211.779 363.739 211.548 364.394 211.54C365.05 211.531 365.688 211.744 366.205 212.145L402.365 239.083C402.733 239.352 403.033 239.702 403.242 240.106C403.451 240.51 403.563 240.958 403.568 241.413C403.574 241.869 403.473 242.319 403.274 242.729C403.075 243.139 402.783 243.497 402.421 243.775L388.26 254.917C387.689 253.769 387 252.684 386.203 251.678C383.838 248.675 380.633 246.441 376.992 245.259C373.351 244.076 369.439 243.999 365.75 245.035C362.061 246.072 358.761 248.177 356.267 251.084C353.774 253.991 352.199 257.569 351.742 261.365C351.285 265.161 351.966 269.006 353.7 272.411C355.433 275.817 358.141 278.632 361.481 280.498C364.82 282.365 368.641 283.201 372.461 282.899C376.28 282.597 379.926 281.172 382.937 278.804L429.516 242.155C430.928 241.053 432.066 239.64 432.841 238.027C433.617 236.415 434.009 234.646 433.987 232.859C433.965 231.072 433.53 229.315 432.715 227.724C431.9 226.134 430.728 224.754 429.29 223.691Z" fill="#B251FB"/>
<path fill-rule="evenodd" clip-rule="evenodd" d="M637.828 355.966C640.549 359.809 641.326 364.075 640.865 368.305L676.427 343.082L676.431 343.088C677.484 342.356 678.97 342.466 679.983 343.429L702.111 364.986C703.038 366.295 702.772 368.064 701.518 368.936L688.606 377.912L688.601 377.906C687.551 378.641 686.063 378.529 685.05 377.566L668.176 361.779L635.692 384.361C619.095 393.339 603.617 379.464 605.928 364.067C608.242 348.674 628.584 342.912 637.828 355.966Z" fill="#B251FB"/>
<path d="M180.985 304.029C181.541 303.9 182.126 303.991 182.617 304.28L212.464 322.917C212.628 323.632 212.589 324.395 212.652 325.133C213.099 332.036 211.372 338.905 207.712 344.778C204.053 350.65 198.645 355.231 192.248 357.874C182.022 362.06 171.467 365.397 160.692 367.85C149.933 370.367 138.984 371.996 127.957 372.719C123.161 373.005 118.36 372.245 113.888 370.49C109.416 368.735 105.38 366.029 102.061 362.558L119.265 335.074C119.58 334.599 120.066 334.262 120.622 334.133C121.178 334.005 121.763 334.095 122.255 334.384L133.326 341.298C135.736 342.811 138.444 343.791 141.265 344.169C144.087 344.548 146.96 344.317 149.685 343.491C154.529 341.943 158.646 338.688 161.27 334.333L179.628 304.97C179.943 304.495 180.429 304.157 180.985 304.029Z" fill="#B251FB"/>
<path fill-rule="evenodd" clip-rule="evenodd" d="M100.832 255.241C121.288 246.785 143.004 241.77 165.097 240.402C172.019 239.95 178.908 241.681 184.791 245.351C190.675 249.021 195.259 254.446 197.892 260.859C202.078 271.08 205.414 281.629 207.866 292.397L208.645 295.769L193.768 286.479C190.976 284.712 187.834 283.566 184.56 283.12C181.286 282.674 177.951 282.939 174.788 283.895C169.17 285.68 164.396 289.451 161.358 294.501L143.668 322.796L134.233 316.904C129.228 313.664 123.199 312.383 117.307 313.308C114.062 313.836 110.967 315.053 108.232 316.877C105.496 318.701 103.182 321.091 101.447 323.884L90.9698 340.638C85.0458 323.659 81.4732 305.948 80.3505 288C79.9052 281.085 81.6403 274.203 85.3146 268.326C88.989 262.449 94.4177 257.873 100.832 255.241ZM126.955 270.937C124.882 271.001 122.874 271.677 121.185 272.881C119.497 274.085 118.202 275.763 117.467 277.701C116.732 279.64 116.587 281.756 117.053 283.776C117.679 286.485 119.357 288.834 121.716 290.307C124.074 291.78 126.923 292.257 129.633 291.631C131.655 291.164 133.494 290.109 134.915 288.599C136.337 287.088 137.277 285.189 137.619 283.144C137.962 281.099 137.692 278.998 136.841 277.108C135.989 275.218 134.594 273.622 132.836 272.524C131.077 271.426 129.028 270.873 126.955 270.937Z" fill="#B251FB"/>
<path fill-rule="evenodd" clip-rule="evenodd" d="M259.686 355.205C254.182 354.166 248.641 357.622 247.154 363.286C243.869 375.803 241.344 388.505 239.671 401.336C239.097 405.737 243.775 408.729 247.463 406.32L261.503 397.15C261.948 396.86 262.53 396.97 262.829 397.401L272.274 411.008C274.755 414.583 280.252 413.513 281.432 409.226C284.868 396.728 287.467 384.04 289.288 371.247C290.112 365.457 286.321 360.238 280.817 359.198L259.686 355.205Z" fill="#110945"/>
<path fill-rule="evenodd" clip-rule="evenodd" d="M384.245 98.3121C389.714 97.8914 395.167 99.1419 399.916 101.905C404.665 104.669 408.495 108.821 410.922 113.838C412.686 117.482 413.652 121.463 413.775 125.507C415.725 125.016 417.754 124.885 419.766 125.134C424.139 125.681 428.108 127.99 430.795 131.551C433.482 135.111 434.67 139.634 434.098 144.121C433.525 148.61 431.239 152.696 427.742 155.482C424.245 158.268 419.825 159.526 415.452 158.979L382.478 154.849C377.044 154.168 371.942 151.849 367.819 148.184C363.695 144.518 360.735 139.672 359.313 134.259C357.891 128.845 358.07 123.106 359.828 117.768C361.586 112.429 364.845 107.732 369.191 104.269C373.537 100.806 378.775 98.7327 384.245 98.3121Z" fill="#110945"/>
<path fill-rule="evenodd" clip-rule="evenodd" d="M522.821 331.049C523.456 330.492 524.349 330.234 525.248 330.347C526.146 330.46 526.953 330.932 527.44 331.63C529.659 334.81 532.102 335.615 534.015 335.71C536.177 335.817 538.028 335.024 538.63 334.606C539.907 333.718 541.78 333.953 542.813 335.131C543.76 336.213 545.762 338.497 547.29 342.209C548.819 345.92 549.828 350.935 549.051 357.503C548.094 365.597 542.848 370.586 536.947 373.567C531.136 376.502 524.563 377.575 520.345 377.977C519.861 378.023 519.369 377.961 518.91 377.797C514.91 376.361 508.779 373.691 503.822 369.402C498.788 365.047 494.858 358.904 495.815 350.81C496.592 344.241 498.739 339.624 501.087 336.4C503.436 333.176 505.911 331.454 507.083 330.639C508.36 329.751 510.233 329.987 511.265 331.165C511.752 331.72 513.365 332.948 515.488 333.38C517.367 333.762 519.927 333.586 522.821 331.049Z" fill="#110945"/>
<circle cx="256" cy="287" r="14" fill="#B251FB"/>
<path fill-rule="evenodd" clip-rule="evenodd" d="M233.095 165.31C229.813 166.276 226.287 166.123 223.087 164.875C219.888 163.628 217.201 161.359 215.462 158.435C210.999 150.873 206.42 143.047 202.76 134.599C200.066 128.382 197.968 122.044 196.068 115.796C195.975 115.49 195.967 115.166 196.045 114.857C196.122 114.548 196.282 114.266 196.508 114.04C196.735 113.813 197.019 113.651 197.332 113.569C197.644 113.488 197.974 113.49 198.287 113.576L236.576 124.023C240.731 125.156 245.141 124.883 249.098 123.248C253.055 121.614 256.327 118.713 258.387 115.012L277.376 80.9009C277.531 80.6236 277.759 80.3925 278.036 80.2315C278.313 80.0704 278.629 79.9852 278.952 79.9846C279.275 79.984 279.593 80.0679 279.873 80.2279C280.153 80.3879 280.385 80.618 280.546 80.8947C283.815 86.5769 287.014 92.4603 289.707 98.677C293.368 107.125 295.936 115.79 298.383 124.177C299.322 127.431 299.119 130.894 297.808 134.005C296.497 137.116 294.154 139.694 291.159 141.321L290.3 141.785C281.618 146.473 272.63 151.334 262.993 155.315C253.356 159.296 243.526 162.21 234.035 165.031L233.095 165.31ZM271.508 69.4231C271.883 69.6507 272.153 70.0131 272.261 70.4326C272.369 70.8522 272.306 71.2953 272.085 71.667L250.375 110.657C249.298 112.596 247.585 114.117 245.512 114.973C243.44 115.829 241.129 115.971 238.953 115.376L195.177 103.441C194.75 103.337 194.38 103.073 194.147 102.705C193.913 102.338 193.835 101.896 193.929 101.475C194.421 99.4675 195.33 97.5852 196.599 95.9458C197.869 94.3065 199.471 92.9454 201.306 91.9481L202.168 91.4906C210.847 86.7963 219.837 81.9425 229.474 77.961C239.111 73.9795 248.938 71.0589 258.433 68.2449L259.372 67.9661C261.382 67.3741 263.497 67.198 265.585 67.4487C267.674 67.6995 269.69 68.3716 271.508 69.4231Z" fill="#B251FB"/>
<path fill-rule="evenodd" clip-rule="evenodd" d="M472.727 45.6234C469.561 42.1937 465.089 40.7524 461.03 41.9583C456.725 43.2371 453.975 47.1526 454.061 52.1625C454.093 53.9658 454.202 55.7975 454.38 57.6151C454.731 61.1834 453.349 64.7964 450.634 67.2858C449.121 68.6738 447.864 69.9155 446.805 71.0375C441.715 76.4321 441.259 84.0971 444.519 89.8309C445.993 92.4234 447.818 95.2297 449.925 97.7214C452.031 100.213 454.506 102.493 456.831 104.394C461.975 108.6 469.747 109.589 476.106 105.695C477.429 104.885 478.908 103.906 480.583 102.708C483.585 100.559 487.466 99.9023 490.98 100.905C492.769 101.415 494.586 101.861 496.389 102.227C501.398 103.244 505.837 101.326 507.922 97.4217C509.887 93.7395 509.275 89.1669 506.425 85.4808C502.508 80.415 497.134 73.7112 489.967 65.2347C482.801 56.7581 477.078 50.3369 472.727 45.6234ZM490.421 34.1081C487.878 34.1002 485.685 36.0939 485.522 38.5614C485.359 41.0286 487.289 43.0348 489.831 43.0427C495.878 43.0612 502.472 45.5406 507.783 51.822C513.093 58.1034 514.352 64.912 513.244 70.7349C512.778 73.1834 514.431 75.4139 516.935 75.7168C519.441 76.0193 521.849 74.2801 522.315 71.8317C523.917 63.4077 521.953 54.065 515.063 45.9153C508.173 37.7656 499.168 34.1349 490.421 34.1081Z" fill="#B251FB"/>
<path d="M639.511 29.0869C631.141 26.685 616.785 22.9154 602.298 20.7417C597.482 20.0189 592.724 22.1664 590.078 26.2278C578.795 43.5434 571.595 60.2393 568.136 69.1649C565.966 74.7644 569.059 80.8917 574.765 82.5975C579.641 84.0552 586.835 86.0486 595.333 87.918C592.838 95.0764 589.773 104.685 586.555 115.04C583.673 124.315 593.8 132.569 602.129 126.836C623.509 112.118 643.896 94.9864 655.172 85.1457C661.376 79.7322 659.112 69.6902 650.962 67.6267C647.205 66.6754 642.583 65.5729 637.12 64.3895C640.256 57.7042 643.368 50.3775 646.305 43.2888C648.691 37.5317 645.636 30.8442 639.511 29.0869Z" fill="#110945"/>
<circle cx="581.956" cy="414.956" r="16.9555" fill="#B251FB"/>
<circle cx="551.792" cy="438.792" r="8.79176" fill="#B251FB"/>
</g>
<defs>
<clipPath id="clip0_28_370">
<rect width="1158" height="448" fill="white"/>
</clipPath>
</defs>
</svg>
