<svg width="14" height="13" viewBox="0 0 14 13" fill="none" xmlns="http://www.w3.org/2000/svg">
<path fill-rule="evenodd" clip-rule="evenodd" d="M5.43068 0.0409487C3.91401 -0.0260896 2.99066 -0.00816746 1.76899 0.0753691C1.00755 0.127434 0.414654 0.708003 0.329682 1.4263C-0.0247566 4.42247 -0.144552 7.44639 0.227982 10.4764C0.383907 11.7446 1.44943 12.6419 2.68472 12.7726C5.60169 13.081 8.47666 13.073 11.3915 12.7649C12.632 12.6337 13.6268 11.6815 13.775 10.4764C14.0054 8.60267 14.066 6.68541 13.9236 4.34402C13.8499 3.13429 12.8729 2.1598 11.6281 2.05972C10.3892 1.9601 9.47567 1.94231 8.12487 1.91603C7.92673 1.91218 7.71897 1.90813 7.49962 1.90362C7.28716 1.89925 7.09823 1.7687 7.0242 1.57453L6.81532 1.02671C6.59962 0.461035 6.05737 0.0686492 5.43068 0.0409487Z" fill="#110945"/>
</svg>
