<svg width="14" height="14" viewBox="0 0 14 14" fill="none" xmlns="http://www.w3.org/2000/svg">
<path d="M10.2827 7.23197C10.3431 7.23197 10.4013 7.25523 10.4451 7.29675L12.9137 9.764C13.0205 9.87071 13.0685 10.0143 13.0471 10.1638C12.9288 10.8866 12.587 11.5542 12.0695 12.0729C11.552 12.5916 10.8849 12.9354 10.162 13.0557C9.00719 13.2439 7.83869 13.3368 6.66862 13.3332C5.49855 13.3366 4.33007 13.2438 3.17523 13.0557C2.67359 12.971 2.19631 12.7781 1.77674 12.4906C1.03942 11.9852 1.1884 10.9482 1.82099 10.3167L3.17523 8.9647C3.21907 8.92315 3.27726 8.89994 3.33767 8.89992C3.39807 8.89992 3.45627 8.92318 3.50011 8.9647L4.47773 9.94178C4.69032 10.1553 4.94633 10.3209 5.22836 10.4272C5.5105 10.5335 5.8124 10.578 6.11324 10.5578C6.64992 10.5135 7.15219 10.2757 7.52665 9.88893L10.1202 7.29675C10.1641 7.2552 10.2223 7.23201 10.2827 7.23197Z" fill="#110945"/>
<path fill-rule="evenodd" clip-rule="evenodd" d="M3.17523 0.288879C5.48724 -0.0962977 7.84729 -0.0962883 10.1593 0.288879C10.8842 0.407083 11.5537 0.749869 12.0733 1.26867C12.5929 1.78752 12.9366 2.45639 13.0555 3.18082C13.2439 4.335 13.3368 5.50286 13.3332 6.67229C13.3332 6.80754 13.1697 6.8753 13.074 6.77969L12.0196 5.72583C11.7737 5.47704 11.4769 5.28393 11.1497 5.15991C10.8224 5.03593 10.4721 4.98379 10.123 5.00705C9.50084 5.05743 8.9184 5.33274 8.48474 5.7814L6.81859 7.44663C6.35842 7.90655 5.6126 7.90655 5.15243 7.44663C4.71314 6.99309 4.12169 6.71732 3.4917 6.67229C3.14435 6.64955 2.79606 6.70136 2.47043 6.82434C2.14473 6.94737 1.84898 7.1389 1.60345 7.38565C1.00762 7.98105 0.00793054 7.61901 0.000757031 6.77671C-0.00948998 5.57352 0.0842947 4.37038 0.281702 3.18082C0.400499 2.45677 0.743473 1.78803 1.26257 1.26921C1.78168 0.750395 2.45079 0.40761 3.17523 0.288879ZM5.49657 2.53061C5.28115 2.48781 5.05786 2.50976 4.85494 2.59376C4.65204 2.67777 4.47855 2.81999 4.35651 3.00248C4.23447 3.18502 4.16914 3.39981 4.16912 3.61935C4.16913 3.91373 4.2863 4.19609 4.49454 4.40427C4.70282 4.61243 4.98535 4.72947 5.27989 4.72951C5.49956 4.72951 5.71445 4.66446 5.8971 4.5425C6.07977 4.42051 6.22198 4.24692 6.30605 4.04406C6.39008 3.84126 6.41234 3.61809 6.36951 3.4028C6.32665 3.18754 6.22076 2.98965 6.06551 2.83444C5.91018 2.67922 5.712 2.57343 5.49657 2.53061Z" fill="#110945"/>
</svg>
