<svg width="34" height="28" viewBox="0 0 34 28" fill="none" xmlns="http://www.w3.org/2000/svg">
<path d="M5.19834 0.515067C11.1262 -1.65152 13.1182 3.74477 14.5316 3.31788C28.9017 -1.02394 29.3405 3.18934 31.1497 8.40708C31.2417 8.74767 31.3119 9.10442 31.3631 9.47371C32.974 10.7859 34 12.7654 34 14.9801C34 17.8832 32.2374 20.3823 29.7049 21.5038C28.7166 25.2698 25.7901 28 22.3335 28C20.6399 28 19.0736 27.3445 17.8001 26.2329C16.5747 27.3444 15.0675 28 13.4378 28C10.6602 28 8.23836 26.096 6.96117 23.2749C6.88428 23.2772 6.80703 23.2785 6.72956 23.2785C2.70256 23.2785 9.16405e-06 20.0757 0 16.1248C1.1454e-05 13.8091 0.559815 11.7507 2.29899 10.4432C1.60614 6.00864 1.89452 1.72261 5.19834 0.515067ZM18.0733 7.38043C16.8325 7.38043 15.8266 8.40239 15.8266 9.66304V13.6196C15.8266 14.8802 16.8325 15.9022 18.0733 15.9022C19.3141 15.9022 20.32 14.8802 20.32 13.6196V9.66304C20.32 8.40239 19.3141 7.38043 18.0733 7.38043ZM24.3641 7.38043C23.1233 7.38043 22.1174 8.40239 22.1174 9.66304V13.6196C22.1174 14.8802 23.1233 15.9022 24.3641 15.9022C25.6049 15.9022 26.6108 14.8802 26.6108 13.6196V9.66304C26.6108 8.40239 25.6049 7.38043 24.3641 7.38043Z" fill="#110945"/>
</svg>
