<svg width="14" height="14" viewBox="0 0 14 14" fill="none" xmlns="http://www.w3.org/2000/svg">
<path d="M11.3763 0.0505158L4.03378 1.94859C3.71471 2.02903 3.43321 2.20978 3.23376 2.46227C3.03431 2.71477 2.92828 3.02462 2.93241 3.34288L2.96333 8.09394C2.965 8.34995 2.7308 8.54026 2.47479 8.53997C1.98268 8.53939 1.50237 8.67947 1.09463 8.94247C0.686878 9.20547 0.370018 9.57958 0.184134 10.0175C-0.0017504 10.4553 -0.0483051 10.9373 0.0503598 11.4024C0.149025 11.8675 0.388475 12.2949 0.738417 12.6303C1.08836 12.9658 1.53306 13.1944 2.01627 13.2871C2.49948 13.3798 2.99947 13.3325 3.45299 13.1512C3.90651 12.9699 4.29318 12.6627 4.56408 12.2685C4.83497 11.8743 4.97792 11.4108 4.97483 10.9367L4.9404 5.64709C4.93839 5.56598 4.96499 5.48679 5.01586 5.42245C5.06674 5.35812 5.13886 5.31246 5.22046 5.29293L10.8149 3.84618C10.8712 3.83097 10.9306 3.82862 10.9882 3.83934C11.0458 3.85005 11.1001 3.87353 11.1468 3.90791C11.1936 3.94229 11.2314 3.98663 11.2573 4.03741C11.2833 4.0882 11.2967 4.14403 11.2964 4.2005L11.3077 5.93575C11.3093 6.19149 11.0749 6.38135 10.8191 6.38182C10.327 6.38125 9.84676 6.52131 9.43902 6.78428C9.03128 7.04726 8.71442 7.42134 8.52852 7.8592C8.34262 8.29706 8.29604 8.77902 8.39466 9.24411C8.49329 9.7092 8.73269 10.1365 9.08258 10.472C9.43247 10.8075 9.87713 11.0361 10.3603 11.1289C10.8435 11.2216 11.3435 11.1744 11.797 10.9932C12.2505 10.8119 12.6372 10.5048 12.9082 10.1107C13.1791 9.71655 13.3222 9.25311 13.3192 8.77899L13.2714 1.44432C13.2708 1.22265 13.217 1.00379 13.1143 0.804822C13.0116 0.605851 12.8627 0.43214 12.6793 0.297234C12.4958 0.162328 12.2828 0.0698721 12.0568 0.0270768C11.8308 -0.0157184 11.5979 -0.00769683 11.3763 0.0505158Z" fill="#110945"/>
</svg>
