<svg width="11" height="13" viewBox="0 0 11 13" fill="none" xmlns="http://www.w3.org/2000/svg">
<path d="M10.2826 4.7206L5.78255 0.220595C5.71287 0.150676 5.63008 0.0951986 5.53892 0.0573444C5.44775 0.0194902 5.35001 3.8147e-06 5.2513 3.8147e-06C5.15259 3.8147e-06 5.05485 0.0194902 4.96369 0.0573444C4.87252 0.0951986 4.78973 0.150676 4.72005 0.220595L0.220051 4.7206C0.0791548 4.86149 -2.09952e-09 5.05259 0 5.25185C2.09952e-09 5.4511 0.0791548 5.6422 0.220051 5.7831C0.360947 5.92399 0.552044 6.00315 0.751301 6.00315C0.950558 6.00315 1.14165 5.92399 1.28255 5.7831L4.50193 2.56372V11.7512C4.50193 11.9501 4.58094 12.1409 4.7216 12.2816C4.86225 12.4222 5.05301 12.5012 5.25193 12.5012C5.45084 12.5012 5.6416 12.4222 5.78226 12.2816C5.92291 12.1409 6.00193 11.9501 6.00193 11.7512V2.56372L9.2213 5.78372C9.3622 5.92462 9.55329 6.00377 9.75255 6.00377C9.95181 6.00377 10.1429 5.92462 10.2838 5.78372C10.4247 5.64282 10.5039 5.45173 10.5039 5.25247C10.5039 5.05321 10.4247 4.86212 10.2838 4.72122L10.2826 4.7206Z" fill="white"/>
</svg>
