<svg width="52" height="52" viewBox="0 0 52 52" fill="none" xmlns="http://www.w3.org/2000/svg">
<path fill-rule="evenodd" clip-rule="evenodd" d="M34.9741 2.33392C36.2337 -0.777982 40.5833 -0.777963 41.8431 2.33392L43.6559 6.81296L48.6071 7.25269C51.9198 7.54688 53.2088 11.7667 50.6393 13.9054L47.0635 16.8817L48.2519 22.4573C48.9566 25.7622 45.334 28.2572 42.5602 26.3776L38.4086 23.5647L34.2571 26.3776C31.4831 28.2572 27.8606 25.7622 28.5652 22.4573L29.7538 16.8817L26.1779 13.9054C23.6083 11.7667 24.8973 7.54688 28.21 7.25269L33.1611 6.81296L34.9741 2.33392ZM41.3829 35.7142L31.8261 38.0123L26.2361 39.4202C24.8481 39.7701 23.4005 39.8012 21.9992 39.5113L12.2706 37.4996C11.2343 37.2853 10.564 36.2624 10.7715 35.2116C10.979 34.1608 11.986 33.4777 13.0239 33.6838L17.3725 34.5473L18.3072 34.715C20.1268 35.0416 21.8627 33.8101 22.1823 31.966C22.4845 30.2222 21.4099 28.5369 19.7168 28.099L10.8688 25.811C9.03913 25.3379 7.14618 25.1662 5.26261 25.3027L1.78345 25.5547C0.778548 25.6275 0 26.4747 0 27.4955V44.4495C0 45.2737 0.512602 46.0084 1.27949 46.2836L12.8947 50.4501C19.0506 52.6581 25.792 52.5024 31.842 50.0119L44.2793 44.892C46.5035 43.9763 47.7092 41.5278 47.0935 39.1762C46.4305 36.6449 43.8979 35.1094 41.3829 35.7142Z" fill="#B251FB"/>
</svg>
