<svg width="52" height="52" viewBox="0 0 52 52" fill="none" xmlns="http://www.w3.org/2000/svg">
<path d="M26.0001 0C26.8777 0 27.708 0.398505 28.2562 1.08367C30.7532 4.20491 33.1958 4.7406 35.0484 4.58374C37.1411 4.4064 38.8325 3.30324 39.3645 2.77144C40.4926 1.64339 42.3219 1.64368 43.4501 2.77144C44.4855 3.80688 46.6715 5.9949 48.5651 9.78218C50.4583 13.5682 52.0003 18.8274 52.0003 26.0001C52.0003 34.8386 47.5188 40.9164 42.1783 44.922C36.9191 48.8663 30.7149 50.9107 26.7009 51.9142C26.2409 52.0293 25.7594 52.0293 25.2993 51.9142C21.2854 50.9107 15.0811 48.8662 9.82192 44.922C4.48155 40.9164 0 34.8385 0 26.0001C2.35191e-06 18.8274 1.54213 13.5682 3.43515 9.78218C5.32884 5.99487 7.51468 3.80689 8.55013 2.77144C9.67829 1.64368 11.5077 1.64351 12.6357 2.77144C13.1675 3.30323 14.8592 4.4064 16.9519 4.58374C18.8045 4.74065 21.247 4.20501 23.744 1.08367C24.2922 0.398473 25.1226 2.87403e-05 26.0001 0Z" fill="#B251FB"/>
</svg>
