<svg width="16" height="16" viewBox="0 0 16 16" fill="none" xmlns="http://www.w3.org/2000/svg">
<path d="M9.53014 13.0312L14.0301 8.53124C14.1001 8.46156 14.1555 8.37877 14.1934 8.2876C14.2312 8.19644 14.2507 8.0987 14.2507 7.99999C14.2507 7.90128 14.2312 7.80354 14.1934 7.71238C14.1555 7.62121 14.1001 7.53842 14.0301 7.46874L9.53014 2.96874C9.38924 2.82784 9.19814 2.74869 8.99889 2.74869C8.79963 2.74869 8.60853 2.82784 8.46764 2.96874C8.32674 3.10964 8.24759 3.30073 8.24759 3.49999C8.24759 3.69925 8.32674 3.89034 8.46764 4.03124L11.687 7.25061L2.49951 7.25061C2.3006 7.25061 2.10983 7.32963 1.96918 7.47028C1.82853 7.61094 1.74951 7.8017 1.74951 8.00061C1.74951 8.19953 1.82853 8.39029 1.96918 8.53094C2.10983 8.6716 2.3006 8.75061 2.49951 8.75061L11.687 8.75061L8.46701 11.97C8.32611 12.1109 8.24696 12.302 8.24696 12.5012C8.24696 12.7005 8.32611 12.8916 8.46701 13.0325C8.60791 13.1734 8.799 13.2525 8.99826 13.2525C9.19752 13.2525 9.38861 13.1734 9.52951 13.0325L9.53014 13.0312Z" fill="#110945"/>
</svg>
